<svg id="Capa_1" enable-background="new 0 0 512 512" height="512" viewBox="0 0 512 512" width="512" xmlns="http://www.w3.org/2000/svg"><g><g><path d="m232.159 152.541h-40.237c-32.783 0-59.359 26.576-59.359 59.359v7.782c0 21.051 10.967 39.53 27.491 50.068 1.427.91 2.29 2.486 2.29 4.179v36.43c0 2.698 3.295 4.011 5.151 2.054l28.697-30.267c1.879-1.982 4.489-3.104 7.22-3.104h28.749c32.783 0 59.359-26.576 59.359-59.359v-7.783c-.001-32.783-26.577-59.359-59.361-59.359z" fill="#b3e59f"/></g><g><g><path d="m440.234 312.808c-16.725 0-30.283-13.558-30.283-30.283v-113.64c0-53.155-43.244-96.399-96.399-96.399h-115.013c-53.155 0-96.399 43.244-96.399 96.399v113.639c0 16.725-13.558 30.283-30.283 30.283s-30.283-13.558-30.283-30.283v-113.639c0-86.551 70.415-156.966 156.966-156.966h115.013c86.551 0 156.966 70.415 156.966 156.966v113.639c-.002 16.725-13.56 30.284-30.285 30.284z" fill="#e4f6ff"/></g></g><g><g><path d="m313.552 11.92h-28.386c86.551 0 156.966 70.415 156.966 156.966v113.639c0 11.595-6.519 21.664-16.09 26.752 4.234 2.251 9.063 3.531 14.193 3.531 16.725 0 30.283-13.559 30.283-30.283v-113.64c-.001-86.551-70.415-156.965-156.966-156.965z" fill="#d3effb"/></g></g><g><path d="m53.754 218.985h48.397v162.061c0 8.284-6.716 15-15 15h-33.397c-25.566 0-46.292-20.726-46.292-46.292v-84.477c0-25.566 20.726-46.292 46.292-46.292z" fill="#365e7d"/></g><g><path d="m357.622 500.08h-43.132c-13.244 0-23.981-10.737-23.981-23.981v-10.762c0-13.244 10.737-23.981 23.981-23.981h43.132c13.244 0 23.981 10.737 23.981 23.981v10.763c0 13.244-10.736 23.98-23.981 23.98z" fill="#365e7d"/></g><g><path d="m357.744 441.357h-.51v10.494c0 13.177-10.682 23.859-23.859 23.859h-42.865v.51c0 13.177 10.682 23.859 23.859 23.859h43.376c13.177 0 23.859-10.682 23.859-23.859v-11.005c-.001-13.176-10.683-23.858-23.86-23.858z" fill="#2b4d66"/></g><g><path d="m458.246 396.046h-33.397c-8.284 0-15-6.716-15-15v-162.061h48.397c25.566 0 46.292 20.726 46.292 46.292v84.477c0 25.566-20.725 46.292-46.292 46.292z" fill="#365e7d"/></g><g><path d="m71.93 218.985v162.137c0 8.242-6.682 14.924-14.924 14.924h30.221c8.242 0 14.924-6.682 14.924-14.924v-162.137z" fill="#2b4d66"/></g><g><path d="m458.481 218.985h-30.221c25.436 0 46.057 20.62 46.057 46.057v84.947c0 25.437-20.62 46.057-46.057 46.057h30.221c25.436 0 46.057-20.62 46.057-46.057v-84.947c0-25.436-20.62-46.057-46.057-46.057z" fill="#2b4d66"/></g><g><path d="m259.448 159.19c4.24 8.172 6.649 17.446 6.649 27.288v7.782c0 32.783-26.576 59.359-59.359 59.359h-40.237c-9.842 0-19.116-2.41-27.288-6.649 4.828 9.307 12.045 17.175 20.84 22.788 1.428.911 2.291 2.486 2.291 4.18v36.42c0 2.698 3.295 4.011 5.151 2.054l28.697-30.267c1.879-1.982 4.489-3.104 7.22-3.104h28.749c32.783 0 59.359-26.576 59.359-59.359v-7.782c-.001-22.941-13.024-42.828-32.072-52.71z" fill="#95d6a4"/></g><g><path d="m321.09 232.091h-40.237c-32.783 0-59.359 26.576-59.359 59.359v7.782c0 32.783 26.576 59.359 59.359 59.359h32.356c2.731 0 5.341 1.122 7.22 3.104l25.089 26.463c1.856 1.958 5.151.644 5.151-2.054v-32.626c0-1.693.862-3.269 2.29-4.179 16.524-10.538 27.491-29.016 27.491-50.068v-7.782c0-32.782-26.576-59.358-59.36-59.358z" fill="#ffe07d"/></g><g><path d="m348.379 238.74c4.24 8.172 6.649 17.446 6.649 27.288v7.782c0 32.783-26.576 59.359-59.359 59.359h-40.237c-9.842 0-19.116-2.41-27.288-6.649 9.882 19.048 29.769 32.071 52.71 32.071h32.356c2.731 0 5.341 1.122 7.22 3.104l25.089 26.463c1.856 1.958 5.151.644 5.151-2.054v-32.626c0-1.693.862-3.269 2.29-4.179 16.524-10.538 27.491-29.016 27.491-50.068v-7.782c-.001-22.94-13.024-42.827-32.072-52.709z" fill="#ffd064"/></g><g><path d="m109.602 168.885c0-28.912 14.185-56.138 37.946-72.829 3.371-2.369 4.186-7.023 1.816-10.395-2.369-3.371-7.022-4.187-10.395-1.816-27.734 19.482-44.291 51.273-44.291 85.04v42.638s-44.163.079-45.643.202v-42.84c0-82.436 67.067-149.503 149.504-149.503h115.012c15.136 0 30.076 2.265 44.405 6.73 3.937 1.225 8.118-.969 9.344-4.904 1.226-3.934-.969-8.118-4.904-9.344-15.768-4.914-32.203-7.407-48.846-7.407h-115.01c-90.666 0-164.428 73.762-164.428 164.427v46.296c-19.942 7.79-34.112 27.196-34.112 49.862v84.947c0 29.511 24.008 53.519 53.519 53.519h33.708c12.343 0 22.386-10.043 22.386-22.386zm-14.913 212.237c0 4.115-3.347 7.462-7.462 7.462h-33.708c-21.281 0-38.595-17.314-38.595-38.595v-84.947c0-21.281 17.314-38.595 38.595-38.595h41.17z"/><path d="m477.979 215.217v-46.332c0-58.832-31.835-113.572-83.08-142.861-3.577-2.043-8.135-.801-10.181 2.776-2.045 3.578-.802 8.136 2.776 10.181 46.608 26.638 75.562 76.414 75.562 129.904v42.847c-1.509-.128-45.642-.209-45.642-.209v-42.638c0-57.27-46.592-103.861-103.861-103.861h-115.013c-8.968 0-17.88 1.151-26.488 3.423-3.986 1.051-6.363 5.134-5.312 9.119 1.051 3.986 5.14 6.36 9.119 5.312 7.367-1.944 14.998-2.929 22.681-2.929h115.012c49.04 0 88.937 39.897 88.937 88.937l-.102 165.213c0 4.122 3.34 7.462 7.462 7.462s7.462-3.34 7.462-7.462v-107.652h41.17c21.281 0 38.595 17.314 38.595 38.595v84.947c0 21.281-17.314 38.595-38.595 38.595h-33.708c-4.115 0-7.462-3.347-7.462-7.462v-11.858c0-4.122-3.34-7.462-7.462-7.462s-7.462 3.34-7.462 7.462v11.858c0 12.343 10.043 22.386 22.386 22.386h9.804c-1.395 26.619-20.162 49.549-46.016 56.144-2.634-14.624-15.445-25.757-30.816-25.757h-43.376c-17.271 0-31.322 14.05-31.322 31.321v11.005c0 17.27 14.05 31.321 31.322 31.321h43.376c17.27 0 31.321-14.05 31.321-31.321v-1.371c34.042-7.137 59.004-36.82 60.457-71.342h8.959c29.511 0 53.519-24.008 53.519-53.519v-84.947c-.001-22.632-14.128-42.013-34.022-49.825zm-103.838 261.004c0 9.041-7.356 16.397-16.397 16.397h-43.376c-9.042 0-16.398-7.356-16.398-16.397v-11.005c0-9.041 7.356-16.397 16.398-16.397h43.376c9.041 0 16.397 7.356 16.397 16.397z"/><path d="m315.014 366.83 25.089 26.462c2.971 3.143 7.506 4.099 11.449 2.517 3.996-1.592 6.579-5.402 6.579-9.704v-31.269c18.674-12.447 29.781-33.13 29.781-55.603v-7.782c0-36.845-29.976-66.821-66.821-66.821h-22.308c.121-1.645.198-12.729.198-12.729 0-36.845-29.976-66.821-66.821-66.821h-40.237c-36.845 0-66.82 29.976-66.82 66.821v7.783c0 22.472 11.106 43.154 29.78 55.601v35.075c0 4.302 2.583 8.112 6.579 9.704 3.942 1.582 8.479.626 11.448-2.516l28.698-30.268c.466-.493 1.124-.775 1.804-.775h10.823c-.12 1.635-.203 3.281-.203 4.946v7.782c0 36.845 29.976 66.821 66.821 66.821h32.356c.679 0 1.337.282 1.805.776zm-111.603-95.25c-4.758 0-9.363 1.98-12.635 5.431l-20.971 22.119v-25.202c0-4.264-2.145-8.178-5.738-10.47-15.054-9.6-24.041-25.965-24.041-43.776v-7.782c0-28.617 23.281-51.898 51.897-51.898h40.237c28.617 0 51.898 23.281 51.898 51.898 0 0-.081 11.088-.236 12.729h-2.968c-14.561 0-28.039 4.696-39.029 12.633l-3.737-3.737c2.137-3.396 3.681-7.199 4.482-11.267h6.604c4.122 0 7.462-3.34 7.462-7.462s-3.34-7.462-7.462-7.462h-7.057c-.87-3.322-2.245-6.441-4.029-9.277l4.127-4.127c2.914-2.915 2.914-7.639 0-10.554-2.915-2.913-7.639-2.913-10.554 0l-4.127 4.127c-3.117-1.961-6.578-3.419-10.272-4.266v-5.825c0-4.122-3.34-7.462-7.462-7.462s-7.462 3.34-7.462 7.462v5.825c-3.694.847-7.155 2.304-10.272 4.266l-4.127-4.127c-2.915-2.913-7.639-2.913-10.554 0-2.914 2.915-2.914 7.639 0 10.554l4.127 4.127c-1.961 3.117-3.419 6.578-4.266 10.272h-5.825c-4.122 0-7.462 3.34-7.462 7.462s3.34 7.462 7.462 7.462h5.825c.847 3.694 2.304 7.155 4.266 10.272l-4.127 4.127c-2.914 2.915-2.914 7.639 0 10.554 1.457 1.456 3.368 2.185 5.277 2.185s3.819-.729 5.277-2.185l4.127-4.127c3.117 1.961 6.578 3.419 10.272 4.266v5.825c0 4.122 3.34 7.462 7.462 7.462s7.462-3.34 7.462-7.462v-5.825c3.694-.847 7.155-2.304 10.272-4.266l3.222 3.222c-6.144 6.964-10.875 15.204-13.707 24.279zm6.389-37.309c-10.19 0-18.48-8.29-18.48-18.48s8.29-18.48 18.48-18.48 18.48 8.29 18.48 18.48-8.29 18.48-18.48 18.48zm19.156 64.961v-7.782c0-28.617 23.281-51.898 51.898-51.898h40.237c28.617 0 51.898 23.281 51.898 51.898v7.782c0 17.812-8.987 34.176-24.042 43.777-3.594 2.292-5.739 6.207-5.739 10.47v21.397l-17.362-18.312c-3.272-3.454-7.878-5.434-12.637-5.434h-32.356c-28.617 0-51.897-23.281-51.897-51.898z"/><circle cx="298.932" cy="335.979" r="7.073"/><path d="m323.303 275.972c-.66-12.703-11.144-22.854-23.871-23.111-.166-.004-.33-.006-.496-.006-12.142 0-22.487 8.951-24.171 21.009-.156 1.116-.235 2.259-.235 3.395 0 4.122 3.34 7.462 7.462 7.462s7.462-3.34 7.462-7.462c0-.448.031-.896.091-1.331.662-4.74 4.81-8.206 9.587-8.147 4.942.1 9.012 4.037 9.267 8.964.137 2.634-.783 5.133-2.592 7.037-1.81 1.906-4.251 2.957-6.874 2.957-4.122 0-7.462 3.34-7.462 7.462v17.715c0 4.122 3.34 7.462 7.462 7.462s7.462-3.34 7.462-7.462v-11.432c3.861-1.246 7.404-3.443 10.235-6.426 4.654-4.901 7.024-11.325 6.673-18.086z"/></g></g></svg>