<svg id="Capa_1" enable-background="new 0 0 512 512" height="512" viewBox="0 0 512 512" width="512" xmlns="http://www.w3.org/2000/svg"><g><g><path d="m90.365 151.688-51.697 59.364c-7.132 8.189-11.06 18.682-11.06 29.542v153.191h175.178v-254.107h-86.036c-10.118 0-19.74 4.38-26.385 12.01z" fill="#365e7d"/></g><g><path d="m27.608 317.523h175.178v76.262h-175.178z" fill="#2b4d66"/></g><g><path d="m485.635 393.785h-289.846v-295.567c0-8.284 6.716-15 15-15h259.845c8.284 0 15 6.716 15 15v295.567z" fill="#ffe07d"/></g><g><path d="m470.64 83.218h-31.385v214.312c0 11.042-8.951 19.993-19.993 19.993h-223.473v76.262h289.845v-295.572c.001-8.282-6.713-14.995-14.994-14.995z" fill="#ffd064"/></g><g><path d="m494.506 363.903h-44.692c-1.705 0-3.363-.609-4.629-1.752-16.151-14.588-37.543-23.48-61.021-23.48s-44.87 8.893-61.021 23.48c-1.265 1.143-2.924 1.752-4.629 1.752h-131.815c-1.705 0-3.363-.609-4.629-1.752-16.151-14.588-37.543-23.48-61.021-23.48s-44.87 8.893-61.021 23.48c-1.265 1.143-2.924 1.752-4.629 1.752h-37.905c-5.521 0-9.996 4.475-9.996 9.996v45.867c0 5.521 4.476 9.996 9.996 9.996h477.013c5.521 0 9.996-4.476 9.996-9.996v-45.867c0-5.521-4.476-9.996-9.997-9.996z" fill="#b3e59f"/></g><g><path d="m494.506 363.903h-17.694v28.173c0 5.521-4.475 9.996-9.996 9.996h-459.319v17.694c0 5.521 4.476 9.996 9.996 9.996h477.013c5.521 0 9.996-4.476 9.996-9.996v-45.867c.001-5.521-4.475-9.996-9.996-9.996z" fill="#95d6a4"/></g><g><circle cx="121.049" cy="429.762" fill="#f4fbff" r="59.041"/></g><g><path d="m152.984 380.115c5.936 9.208 9.394 20.165 9.394 31.935 0 32.607-26.433 59.041-59.041 59.041-11.77 0-22.726-3.458-31.935-9.394 10.508 16.302 28.81 27.106 49.647 27.106 32.607 0 59.041-26.434 59.041-59.041 0-20.837-10.804-39.139-27.106-49.647z" fill="#e4f6ff"/></g><g><circle cx="121.049" cy="429.762" fill="#365e7d" r="21.086"/></g><g><path d="m126.031 409.292c.388 1.6.616 3.262.616 4.981 0 11.646-9.441 21.086-21.086 21.086-1.719 0-3.381-.228-4.981-.617 2.242 9.237 10.543 16.105 20.47 16.105 11.646 0 21.086-9.44 21.086-21.086-.001-9.925-6.868-18.227-16.105-20.469z" fill="#2b4d66"/></g><g><circle cx="384.165" cy="429.762" fill="#f4fbff" r="59.041"/></g><g><path d="m416.1 380.115c5.936 9.208 9.394 20.165 9.394 31.935 0 32.607-26.433 59.041-59.041 59.041-11.77 0-22.726-3.458-31.935-9.394 10.508 16.302 28.81 27.106 49.647 27.106 32.607 0 59.041-26.434 59.041-59.041 0-20.837-10.804-39.139-27.106-49.647z" fill="#e4f6ff"/></g><g><circle cx="384.165" cy="429.762" fill="#365e7d" r="21.086"/></g><g><path d="m389.146 409.292c.388 1.6.616 3.262.616 4.981 0 11.646-9.441 21.086-21.086 21.086-1.719 0-3.381-.228-4.981-.617 2.242 9.237 10.543 16.105 20.47 16.105 11.646 0 21.086-9.44 21.086-21.086 0-9.925-6.868-18.227-16.105-20.469z" fill="#2b4d66"/></g><g><path d="m116.75 139.678c-10.118 0-19.74 4.38-26.385 12.01l-51.697 59.364c-7.132 8.189-11.06 18.682-11.06 29.542v21.109h123.867c2.76 0 4.998-2.238 4.998-4.998v-117.027z" fill="#cbe2ff"/></g><g><path d="m132.115 139.678v92.669c0 2.76-2.238 4.998-4.998 4.998h-99.38c-.078 1.079-.128 2.161-.128 3.249v21.109h123.867c2.76 0 4.998-2.238 4.998-4.998v-117.027z" fill="#bed8fb"/></g><g><path d="m27.608 325.2h32.42c8.107 0 14.678-6.572 14.678-14.678v-3.125c0-8.107-6.572-14.678-14.678-14.678h-32.42z" fill="#ffe07d"/></g><g><path d="m66.092 294.038v.248c0 8.104-6.569 14.673-14.673 14.673h-23.811v16.241h32.426c8.104 0 14.673-6.569 14.673-14.673v-3.136c0-5.941-3.538-11.045-8.615-13.353z" fill="#ffd064"/></g><g><path d="m451.432 133.881c0 53.309-84.178 152.231-105.713 176.666-2.64 2.995-7.3 2.995-9.94 0-21.536-24.435-105.713-123.357-105.713-176.666 0-61.129 49.555-110.683 110.683-110.683s110.683 49.554 110.683 110.683z" fill="#b3e59f"/></g><g><path d="m373.961 28.27c23.259 20.29 37.958 50.145 37.958 83.435 0 49.509-72.595 138.348-100.197 170.337 10.247 12.641 18.929 22.687 24.057 28.505 2.639 2.995 7.3 2.995 9.94 0 21.536-24.435 105.713-123.357 105.713-176.666 0-49.557-32.57-91.504-77.471-105.611z" fill="#95d6a4"/></g><g><circle cx="340.748" cy="127.347" fill="#f4fbff" r="46.34"/></g><g><path d="m364.962 87.834c4.328 7.047 6.827 15.338 6.827 24.214 0 25.593-20.747 46.34-46.34 46.34-8.876 0-17.166-2.499-24.213-6.827 8.151 13.272 22.796 22.126 39.513 22.126 25.593 0 46.34-20.747 46.34-46.34-.001-16.716-8.855-31.362-22.127-39.513z" fill="#e4f6ff"/></g><g><path d="m494.506 356.405h-1.375v-258.192c0-12.402-10.09-22.492-22.492-22.492h-27.045c-20.328-35.808-58.81-60.021-102.846-60.021s-82.518 24.213-102.847 60.021h-27.117c-12.402 0-22.492 10.09-22.492 22.492v33.968h-71.542c-12.289 0-23.967 5.315-32.039 14.584l-51.697 59.364c-8.321 9.556-12.903 21.796-12.903 34.465v115.811h-2.617c-9.646 0-17.494 7.848-17.494 17.494v45.867c0 9.646 7.848 17.494 17.494 17.494h37.452c3.738 33.171 31.95 59.041 66.104 59.041s62.366-25.87 66.104-59.041h130.907c3.738 33.171 31.95 59.041 66.104 59.041 11.573 0 22.973-3.018 32.967-8.73 3.595-2.054 4.845-6.634 2.79-10.229-2.054-3.596-6.634-4.846-10.229-2.79-7.734 4.418-16.56 6.754-25.529 6.754-28.421 0-51.544-23.122-51.544-51.544s23.122-51.544 51.544-51.544 51.544 23.122 51.544 51.544c0 7.285-1.487 14.323-4.419 20.919-1.683 3.783.02 8.214 3.803 9.897 3.784 1.682 8.215-.021 9.897-3.804 2.773-6.236 4.535-12.775 5.288-19.514h44.229c9.646 0 17.494-7.848 17.494-17.494v-45.867c0-9.646-7.848-17.494-17.494-17.494zm-291.219-258.192c0-4.134 3.363-7.497 7.497-7.497h19.946c-5.267 13.378-8.163 27.939-8.163 43.165 0 18.181 8.786 42.453 26.113 72.141 2.088 3.578 6.679 4.782 10.254 2.696 3.577-2.087 4.783-6.678 2.696-10.254-15.971-27.364-24.068-49.093-24.068-64.583 0-56.897 46.289-103.186 103.186-103.186s103.186 46.289 103.186 103.185c0 39.56-53.175 114.099-103.186 170.965-10.917-12.423-37.27-43.279-60.614-77.345-2.339-3.416-7.006-4.286-10.422-1.947-3.416 2.34-4.287 7.007-1.947 10.422 24.29 35.448 51.721 67.425 62.387 79.528 2.682 3.042 6.543 4.786 10.595 4.786s7.913-1.745 10.595-4.786c25.238-28.636 107.586-126.364 107.586-181.623 0-15.226-2.895-29.787-8.163-43.165h19.874c4.134 0 7.497 3.363 7.497 7.497v258.193h-28.128c-18.116-16.273-41.49-25.232-65.844-25.232s-47.728 8.96-65.844 25.232h-115.033zm-158.964 117.763 51.697-59.364c5.223-5.997 12.779-9.437 20.731-9.437h32.226v107.031h-113.872v-13.612c0-9.049 3.274-17.793 9.218-24.618zm-9.218 84.239h24.928c3.957 0 7.176 3.219 7.176 7.176v3.136c0 3.957-3.22 7.176-7.176 7.176h-24.928zm0 32.482h24.928c12.225 0 22.171-9.946 22.171-22.17v-3.136c0-12.225-9.946-22.17-22.171-22.17h-24.928v-16.02h116.37c6.89 0 12.495-5.605 12.495-12.495v-109.53h24.321v209.23h-1.399c-18.116-16.273-41.49-25.232-65.844-25.232s-47.728 8.96-65.844 25.232h-20.1v-23.709zm461.9 87.068c0 1.378-1.121 2.499-2.499 2.499h-44.237c-3.738-33.171-31.95-59.041-66.104-59.041s-62.366 25.87-66.104 59.041h-130.907c-3.738-33.171-31.95-59.041-66.104-59.041-8.712 0-17.186 1.661-25.189 4.935-3.832 1.568-5.667 5.946-4.099 9.779 1.568 3.832 5.944 5.669 9.779 4.099 6.191-2.534 12.755-3.818 19.509-3.818 28.421 0 51.544 23.122 51.544 51.544s-23.122 51.544-51.544 51.544-51.544-23.122-51.544-51.544c0-9.573 2.641-18.914 7.637-27.013 2.173-3.525 1.079-8.143-2.445-10.317s-8.144-1.08-10.318 2.445c-5.141 8.336-8.345 17.686-9.44 27.388h-37.446c-1.378 0-2.499-1.121-2.499-2.499v-45.867c0-1.378 1.121-2.499 2.499-2.499h37.907c3.593 0 7.022-1.309 9.654-3.685 15.384-13.895 35.27-21.547 55.995-21.547s40.611 7.652 55.995 21.547c2.632 2.377 6.06 3.685 9.654 3.685h131.818c3.593 0 7.022-1.309 9.654-3.685 15.384-13.895 35.27-21.547 55.995-21.547s40.611 7.652 55.995 21.547c2.632 2.377 6.06 3.685 9.654 3.685h44.693c1.378 0 2.499 1.121 2.499 2.499v45.866z"/><path d="m121.049 458.345c15.761 0 28.583-12.822 28.583-28.583s-12.822-28.583-28.583-28.583-28.583 12.822-28.583 28.583 12.823 28.583 28.583 28.583zm0-42.172c7.493 0 13.589 6.096 13.589 13.589s-6.095 13.589-13.589 13.589c-7.493 0-13.589-6.096-13.589-13.589s6.096-13.589 13.589-13.589z"/><path d="m355.582 429.762c0 15.761 12.822 28.583 28.583 28.583s28.583-12.822 28.583-28.583-12.822-28.583-28.583-28.583-28.583 12.822-28.583 28.583zm42.172 0c0 7.493-6.095 13.589-13.589 13.589s-13.589-6.096-13.589-13.589 6.095-13.589 13.589-13.589 13.589 6.096 13.589 13.589z"/><path d="m106.548 300.84h19.399c4.141 0 7.497-3.357 7.497-7.497s-3.356-7.497-7.497-7.497h-19.399c-4.141 0-7.497 3.357-7.497 7.497s3.356 7.497 7.497 7.497z"/><path d="m340.748 181.185c29.686 0 53.838-24.151 53.838-53.838 0-29.686-24.151-53.837-53.838-53.837s-53.838 24.151-53.838 53.837c.001 29.687 24.152 53.838 53.838 53.838zm0-92.681c21.418 0 38.843 17.425 38.843 38.843s-17.425 38.843-38.843 38.843-38.843-17.425-38.843-38.843 17.425-38.843 38.843-38.843z"/></g></g></svg>